<!DOCTYPE svg PUBLIC "-//W3C//DTD SVG 1.1//EN" "http://www.w3.org/Graphics/SVG/1.1/DTD/svg11.dtd">
<!-- Uploaded to: SVG Repo, www.svgrepo.com, Transformed by: SVG Repo Mixer Tools -->
<svg width="800px" height="800px" viewBox="-4.8 -4.8 57.60 57.60" id="b" xmlns="http://www.w3.org/2000/svg" fill="#000000">
<g id="SVGRepo_bgCarrier" stroke-width="0">
<rect x="-4.8" y="-4.8" width="57.60" height="57.60" rx="5.76" fill="#F0BB1F" strokewidth="0"/>
</g>
<g id="SVGRepo_tracerCarrier" stroke-linecap="round" stroke-linejoin="round"/>
<g id="SVGRepo_iconCarrier"> <defs> <style>.g{fill:none;stroke:#ffffff;stroke-linecap:round;stroke-linejoin:round;}</style> </defs> <path id="c" class="g" d="m40.5,5.5H7.5c-1.1046,0-2,.8954-2,2v33c0,1.1046.8954,2,2,2h33c1.1046,0,2-.8954,2-2V7.5c0-1.1046-.8954-2-2-2Z"/> <g> <path id="d" class="g" d="m20.373,11.5005h16.502v5h-16.502v-5Z"/> <path id="e" class="g" d="m20.373,21.5h16.502v5h-16.502v-5Z"/> <path id="f" class="g" d="m20.373,31.4995h16.502v5h-16.502v-5Z"/> <rect class="g" x="11.125" y="11.5005" width="5" height="5"/> <rect class="g" x="11.125" y="21.5" width="5" height="5"/> <rect class="g" x="11.125" y="31.4995" width="5" height="5"/> </g> </g>
</svg>