<svg width="19" height="16" viewBox="0 0 19 16" fill="none" xmlns="http://www.w3.org/2000/svg">
<path d="M5.50488 2.29798C5.8524 2.17579 6.18038 2.04859 6.51574 1.94506C7.85015 1.52912 9.25674 1.39879 10.6445 1.5625C12.988 1.83388 15.0043 2.80726 16.6887 4.46256C17.6845 5.43972 18.4662 6.6145 18.9838 7.91185C19.0059 7.97246 19.0059 8.03893 18.9838 8.09954C18.2797 9.82952 17.1889 11.2641 15.7115 12.4034C15.6898 12.4201 15.6664 12.4349 15.6385 12.4543C15.6135 12.4335 15.5882 12.4156 15.567 12.3941C14.8315 11.6579 14.0956 10.9219 13.3594 10.1859C13.2996 10.1266 13.2984 10.0853 13.3355 10.014C14.7113 7.36215 13.0836 4.15604 10.1359 3.71585C9.20939 3.57741 8.32652 3.73043 7.49514 4.16512C7.42912 4.19931 7.39027 4.20434 7.33354 4.14695C6.75243 3.5594 6.16957 2.97376 5.58497 2.39003C5.56185 2.36803 5.5435 2.34317 5.50488 2.29798Z" fill="#003A51"/>
<path d="M3.3815 3.5473C3.63964 3.81031 3.89421 4.07141 4.15163 4.33012C4.64741 4.82889 5.14446 5.3263 5.64278 5.82236C5.69974 5.87902 5.70999 5.918 5.6709 5.99331C4.28844 8.63228 5.92236 11.8556 8.86485 12.2944C9.78728 12.4318 10.6656 12.2812 11.496 11.8542L11.5821 11.8092L13.4701 13.712C13.268 13.7885 13.0568 13.8744 12.8418 13.9492C8.78 15.364 4.23172 14.0515 1.54117 10.6917C0.907336 9.90464 0.393263 9.02773 0.0157016 8.08952C-0.00455593 8.03569 -0.00523305 7.97642 0.0137929 7.92215C0.716144 6.19169 1.80527 4.75628 3.28116 3.61592C3.30881 3.59464 3.33884 3.57623 3.3815 3.5473Z" fill="#003A51"/>
<path d="M1.5542 0.795492L2.34387 0L17.4587 15.2033L16.659 16L1.5542 0.795492Z" fill="#003A51"/>
<path d="M10.2409 10.4911C9.57854 10.7325 8.45779 10.6546 7.64761 9.82922C6.84292 9.00958 6.7869 7.89417 7.02407 7.25458L10.2409 10.4911Z" fill="#003A51"/>
<path d="M8.75439 5.52278C9.38795 5.18445 10.6312 5.47496 11.3072 6.13226C12.1793 6.97963 12.2129 8.1455 11.9746 8.76238L8.75439 5.52278Z" fill="#003A51"/>
</svg>
