<svg width="20" height="14" viewBox="0 0 20 14" fill="none" xmlns="http://www.w3.org/2000/svg">
<path d="M6.03027 1.68817C6.37779 1.56599 6.70577 1.43879 7.04113 1.33526C8.37554 0.919321 9.78213 0.78899 11.1699 0.952696C13.5134 1.22408 15.5297 2.19746 17.2141 3.85276C18.2099 4.82992 18.9916 6.0047 19.5092 7.30205C19.5313 7.36266 19.5313 7.42913 19.5092 7.48974C18.8051 9.21972 17.7143 10.6543 16.2369 11.7936C16.2152 11.8103 16.1918 11.8251 16.1639 11.8445C16.1389 11.8237 16.1136 11.8058 16.0924 11.7842C15.3568 11.0481 14.621 10.3121 13.8848 9.57614C13.8249 9.51685 13.8237 9.47548 13.8609 9.40423C15.2367 6.75235 13.609 3.54623 10.6613 3.10605C9.73478 2.96761 8.85191 3.12063 8.02053 3.55532C7.95451 3.58951 7.91566 3.59453 7.85893 3.53715C7.27782 2.9496 6.69496 2.36396 6.11036 1.78023C6.08724 1.75823 6.06889 1.73336 6.03027 1.68817Z" fill="#003A51"/>
<path d="M3.90702 2.9375C4.16516 3.20051 4.41972 3.46161 4.67714 3.72032C5.17292 4.21909 5.66997 4.7165 6.16829 5.21255C6.22526 5.26922 6.2355 5.3082 6.19641 5.38351C4.81396 8.02248 6.44788 11.2458 9.39036 11.6846C10.3128 11.822 11.1911 11.6714 12.0216 11.2444L12.1076 11.1994L13.9956 13.1022C13.7935 13.1787 13.5823 13.2645 13.3673 13.3394C9.30551 14.7542 4.75723 13.4417 2.06668 10.0819C1.43285 9.29483 0.918775 8.41793 0.541214 7.47972C0.520957 7.42589 0.52028 7.36662 0.539306 7.31235C1.24166 5.58189 2.33078 4.14648 3.80667 3.00612C3.83432 2.98484 3.86435 2.96643 3.90702 2.9375Z" fill="#003A51"/>
<path d="M12.627 7.32343C12.627 8.8022 11.4282 10.001 9.9494 10.001C8.47063 10.001 7.27185 8.8022 7.27185 7.32343C7.27185 5.84465 8.47063 4.64587 9.9494 4.64587C11.4282 4.64587 12.627 5.84465 12.627 7.32343Z" fill="#003A51"/>
</svg>
