<svg width="243" height="41" viewBox="0 0 243 41" fill="none" xmlns="http://www.w3.org/2000/svg">
<path d="M38.095 40H25.885L12.96 20.42V40H0.75V1.06H12.96L25.885 20.97V1.06H38.095V40ZM67.4813 14.37C67.0047 13.6 66.3263 13.0133 65.4463 12.61C64.5663 12.17 63.503 11.95 62.2563 11.95C59.9097 11.95 58.0947 12.72 56.8113 14.26C55.528 15.7633 54.8863 17.835 54.8863 20.475C54.8863 23.5183 55.6013 25.7917 57.0313 27.295C58.4613 28.7983 60.6613 29.55 63.6313 29.55C66.4547 29.55 68.728 28.4133 70.4513 26.14H60.7163V17.505H80.5713V29.715C78.8847 32.6117 76.5563 35.105 73.5863 37.195C70.6163 39.2483 66.858 40.275 62.3113 40.275C58.278 40.275 54.758 39.45 51.7513 37.8C48.7813 36.1133 46.4897 33.7667 44.8763 30.76C43.2997 27.7533 42.5113 24.325 42.5113 20.475C42.5113 16.625 43.2997 13.1967 44.8763 10.19C46.4897 7.18333 48.7813 4.855 51.7513 3.205C54.7213 1.51833 58.2047 0.674998 62.2013 0.674998C67.298 0.674998 71.4413 1.90333 74.6313 4.36C77.858 6.81667 79.7647 10.1533 80.3513 14.37H67.4813ZM103.944 40.385C100.277 40.385 96.9038 39.5233 93.8238 37.8C90.7804 36.0767 88.3604 33.6933 86.5638 30.65C84.7671 27.6067 83.8688 24.1783 83.8688 20.365C83.8688 16.5517 84.7671 13.1233 86.5638 10.08C88.3604 7.03666 90.7804 4.67166 93.8238 2.985C96.9038 1.26166 100.277 0.399998 103.944 0.399998C107.61 0.399998 110.965 1.26166 114.009 2.985C117.052 4.67166 119.454 7.03666 121.214 10.08C123.01 13.1233 123.909 16.5517 123.909 20.365C123.909 24.1783 123.01 27.6067 121.214 30.65C119.454 33.6933 117.034 36.0767 113.954 37.8C110.91 39.5233 107.574 40.385 103.944 40.385ZM103.944 29C106.364 29 108.234 28.23 109.554 26.69C110.874 25.1133 111.534 23.005 111.534 20.365C111.534 17.6883 110.874 15.58 109.554 14.04C108.234 12.4633 106.364 11.675 103.944 11.675C101.487 11.675 99.5988 12.4633 98.2788 14.04C96.9588 15.58 96.2988 17.6883 96.2988 20.365C96.2988 23.005 96.9588 25.1133 98.2788 26.69C99.5988 28.23 101.487 29 103.944 29ZM164.338 1.06V40H152.128V24.82H140.523V40H128.313V1.06H140.523V15.085H152.128V1.06H164.338ZM181.767 1.06V23.005C181.767 24.8017 182.152 26.2317 182.922 27.295C183.729 28.3217 185.012 28.835 186.772 28.835C188.532 28.835 189.834 28.3217 190.677 27.295C191.52 26.2317 191.942 24.8017 191.942 23.005V1.06H204.097V23.005C204.097 26.7083 203.327 29.88 201.787 32.52C200.247 35.1233 198.139 37.085 195.462 38.405C192.785 39.725 189.797 40.385 186.497 40.385C183.197 40.385 180.264 39.725 177.697 38.405C175.167 37.085 173.187 35.1233 171.757 32.52C170.327 29.9167 169.612 26.745 169.612 23.005V1.06H181.767ZM235.433 20.035C237.78 20.585 239.595 21.7217 240.878 23.445C242.198 25.1317 242.858 27.0933 242.858 29.33C242.858 32.74 241.722 35.38 239.448 37.25C237.212 39.0833 233.985 40 229.768 40H209.363V1.06H229.218C233.178 1.06 236.295 1.92167 238.568 3.645C240.842 5.36833 241.978 7.88 241.978 11.18C241.978 13.4533 241.373 15.3783 240.163 16.955C238.99 18.495 237.413 19.5217 235.433 20.035ZM221.573 16.24H226.303C227.403 16.24 228.21 16.02 228.723 15.58C229.273 15.14 229.548 14.4617 229.548 13.545C229.548 12.5917 229.273 11.895 228.723 11.455C228.21 10.9783 227.403 10.74 226.303 10.74H221.573V16.24ZM227.128 30.21C228.228 30.21 229.035 30.0083 229.548 29.605C230.098 29.165 230.373 28.4683 230.373 27.515C230.373 25.645 229.292 24.71 227.128 24.71H221.573V30.21H227.128Z" fill="#6961BF"/>
</svg>
