<!DOCTYPE svg PUBLIC "-//W3C//DTD SVG 1.1//EN" "http://www.w3.org/Graphics/SVG/1.1/DTD/svg11.dtd">
<!-- Uploaded to: SVG Repo, www.svgrepo.com, Transformed by: SVG Repo Mixer Tools -->
<svg width="800px" height="800px" viewBox="-6.72 -6.72 37.44 37.44" xmlns="http://www.w3.org/2000/svg" fill="#ffff" stroke="#ffff">
<g id="SVGRepo_bgCarrier" stroke-width="0" transform="translate(0,0), scale(1)">
<rect x="-6.72" y="-6.72" width="37.44" height="37.44" rx="3.7439999999999998" fill="#181E4B" strokewidth="0"/>
</g>
<g id="SVGRepo_tracerCarrier" stroke-linecap="round" stroke-linejoin="round"/>
<g id="SVGRepo_iconCarrier">
<path d="M9.5 2h-6A1.502 1.502 0 0 0 2 3.5v6A1.502 1.502 0 0 0 3.5 11h6A1.502 1.502 0 0 0 11 9.5v-6A1.502 1.502 0 0 0 9.5 2zm.5 7.5a.501.501 0 0 1-.5.5h-6a.501.501 0 0 1-.5-.5v-6a.501.501 0 0 1 .5-.5h6a.501.501 0 0 1 .5.5zM20.5 2h-6A1.502 1.502 0 0 0 13 3.5v6a1.502 1.502 0 0 0 1.5 1.5h6A1.502 1.502 0 0 0 22 9.5v-6A1.502 1.502 0 0 0 20.5 2zm.5 7.5a.501.501 0 0 1-.5.5h-6a.501.501 0 0 1-.5-.5v-6a.501.501 0 0 1 .5-.5h6a.501.501 0 0 1 .5.5zM9.5 13h-6A1.502 1.502 0 0 0 2 14.5v6A1.502 1.502 0 0 0 3.5 22h6a1.502 1.502 0 0 0 1.5-1.5v-6A1.502 1.502 0 0 0 9.5 13zm.5 7.5a.501.501 0 0 1-.5.5h-6a.501.501 0 0 1-.5-.5v-6a.501.501 0 0 1 .5-.5h6a.501.501 0 0 1 .5.5zM20.5 13h-6a1.502 1.502 0 0 0-1.5 1.5v6a1.502 1.502 0 0 0 1.5 1.5h6a1.502 1.502 0 0 0 1.5-1.5v-6a1.502 1.502 0 0 0-1.5-1.5zm.5 7.5a.501.501 0 0 1-.5.5h-6a.501.501 0 0 1-.5-.5v-6a.501.501 0 0 1 .5-.5h6a.501.501 0 0 1 .5.5z"/>
<path fill="none" d="M0 0h24v24H0z"/>
</g>
</svg>